<svg xmlns="http://www.w3.org/2000/svg" version="1.1" xmlns:xlink="http://www.w3.org/1999/xlink" width="32" height="22"><svg width="32" height="22" viewBox="0 0 32 22" fill="none" xmlns="http://www.w3.org/2000/svg">
<path d="M7.14997 15.2821C6.47486 14.4297 0 10.1894 0 10.1894L2.81933 6.0356L10.4743 11.0241L8.30583 4.89705L13.2873 3.26391L15.7166 9.77258L18.738 0.000144958L23.7718 1.3885L20.9512 10.7969L24.727 8.02273L27.9849 12.0936L23.8997 15.2833H31.8271V20.4162H23.8358C23.8358 20.4162 20.5894 18.1529 20.2582 17.9107C18.3301 16.4972 19.9616 14.1573 20.6354 11.2488C19.4655 11.9355 17.2011 14.3707 15.9046 14.4134C15.567 14.4247 15.0863 14.2804 14.7781 14.1373L10.6022 11.279L12.3322 16.029C12.5367 16.8236 12.3232 17.5215 11.7555 18.1052C11.5215 18.3463 8.93746 20.4162 8.74567 20.4162H3.69645V15.2833H7.14869L7.14997 15.2821Z" fill="#00FF88"></path>
</svg><style>@media (prefers-color-scheme: light) { :root { filter: none; } }
@media (prefers-color-scheme: dark) { :root { filter: none; } }
</style></svg>